<svg xmlns="http://www.w3.org/2000/svg" width="20.408" height="18.838" viewBox="0 0 20.408 18.838">
  <path id="Icon_ionic-ios-leaf" data-name="Icon ionic-ios-leaf" d="M23.288,19.938a9.925,9.925,0,0,1-2.733-.574c.765-3.63-1.1-7.413-3.743-9.6-3.522-2.9-8.875-.795-13.045-5.21C2.8,3.528,3.361,16.112,8.58,20.88a9.177,9.177,0,0,0,9.542,1.845,5.463,5.463,0,0,0,1.9-1.663,14.4,14.4,0,0,0,3.042.7C23.779,21.847,24.142,20.071,23.288,19.938Zm-4.5.363c-3.812-1.143-7.128-3.974-9.277-6.191a.2.2,0,0,1,.27-.294,29.834,29.834,0,0,0,9.483,5.293A1.829,1.829,0,0,1,18.785,20.3Z" transform="translate(-3.376 -4.499)" fill="#fff"/>
</svg>
