<svg xmlns="http://www.w3.org/2000/svg" width="16.848" height="16.848" viewBox="0 0 16.848 16.848">
  <path id="Icon_awesome-basketball-ball" data-name="Icon awesome-basketball-ball" d="M7.211.641A8.374,8.374,0,0,0,3.06,2.468L5.69,5.1A7.565,7.565,0,0,0,7.211.641ZM8.424,7.832l5.363-5.363A8.4,8.4,0,0,0,8.845.563a9.166,9.166,0,0,1-1.994,5.7ZM1.906,3.623A8.374,8.374,0,0,0,.078,7.774,7.557,7.557,0,0,0,4.535,6.252Zm9.246,6.936a9.193,9.193,0,0,1,5.7-1.994,8.4,8.4,0,0,0-1.906-4.942L9.579,8.986l1.573,1.573Zm-2.728-.418L3.06,15.5A8.418,8.418,0,0,0,8,17.41,9.193,9.193,0,0,1,10,11.714Zm6.518,4.209A8.374,8.374,0,0,0,16.77,10.2a7.6,7.6,0,0,0-4.457,1.522ZM5.7,7.414A9.146,9.146,0,0,1,0,9.408,8.4,8.4,0,0,0,1.906,14.35L7.269,8.986Zm3.94,9.918A8.374,8.374,0,0,0,13.787,15.5l-2.629-2.629A7.6,7.6,0,0,0,9.637,17.332Z" transform="translate(0 -0.563)" fill="#fff"/>
</svg>
