<svg xmlns="http://www.w3.org/2000/svg" width="22.14" height="19.68" viewBox="0 0 22.14 19.68">
  <path id="Icon_awesome-cocktail" data-name="Icon awesome-cocktail" d="M11.377,17.835H9.225V13.022l6.486-6.486a.947.947,0,0,0-.67-1.616H.948a.947.947,0,0,0-.67,1.616l6.486,6.486v4.813H4.612a1.538,1.538,0,0,0-1.538,1.538.307.307,0,0,0,.308.308h9.225a.307.307,0,0,0,.308-.308A1.538,1.538,0,0,0,11.377,17.835ZM16.6,0a5.518,5.518,0,0,0-5.2,3.69h2.02a3.69,3.69,0,1,1,1.665,5.2l-1.355,1.355A5.527,5.527,0,1,0,16.6,0Z" transform="translate(0)" fill="#fff"/>
</svg>
