<svg xmlns="http://www.w3.org/2000/svg" width="16.542" height="19.68" viewBox="0 0 16.542 19.68">
  <path id="Icon_map-bus-station" data-name="Icon map-bus-station" d="M17.516,9.857H4.905a.683.683,0,0,1-.67-.675A.878.878,0,0,1,4.258,9L4.93,4.313c.057-.3.331-.364.659-.364H16.835c.326,0,.6.055.659.358l.671,4.772a.7.7,0,0,1,.024.148A.647.647,0,0,1,17.516,9.857Zm-.5,5.256a1.253,1.253,0,1,1,1.282-1.256A1.269,1.269,0,0,1,17.012,15.113Zm-11.619,0A1.253,1.253,0,1,1,6.68,13.857a1.268,1.268,0,0,1-1.287,1.256ZM7.606,1.192h7.877V2.374H7.606A.591.591,0,1,1,7.606,1.192ZM18.714,3c-.23-1.108-.9-1.554-2-2A18.147,18.147,0,0,0,11.179.023,18.277,18.277,0,0,0,5.62,1c-1.1.446-1.757.892-1.985,2L2.88,9.167v8.567H4.062v.788c0,1.575,1.969,1.575,1.969,0v-.788h9.846v.788a1.182,1.182,0,1,0,2.363,0v-.788h1.182V9.167Z" transform="translate(-2.88 -0.023)" fill="#fff"/>
</svg>
