<?xml version="1.0"?>
<svg xmlns="http://www.w3.org/2000/svg" xmlns:xlink="http://www.w3.org/1999/xlink" version="1.1" id="Capa_1" x="0px" y="0px" viewBox="0 0 496 496" style="enable-background:new 0 0 496 496;" xml:space="preserve" width="512px" height="512px"><g transform="matrix(0.262713 0 0 0.262713 179.31 182.847)"><g>
	<g>
		<g>
			<path d="M496,192V88c0-4.418-3.582-8-8-8h-88V64h8c4.418,0,8-3.582,8-8V8c0-4.418-3.582-8-8-8H88c-4.418,0-8,3.582-8,8v48     c0,4.418,3.582,8,8,8h8v16H8c-4.418,0-8,3.582-8,8v104c0.036,11.381,6.133,21.88,16,27.552V312H8c-4.418,0-8,3.582-8,8v32     c0,4.418,3.582,8,8,8h8v128c0,4.418,3.582,8,8,8h448c4.418,0,8-3.582,8-8V360h8c4.418,0,8-3.582,8-8v-32c0-4.418-3.582-8-8-8h-8     v-92.448C489.867,213.88,495.964,203.381,496,192z M96,16h304v32H96V16z M384,64v16h-16V64H384z M352,64v16H144V64H352z M128,64     v16h-16V64H128z M16,96h464v16H16V96z M448,280v-60.448c4.843,2.879,10.366,4.415,16,4.448v56H448z M464,296v16h-16v-16H464z      M148.519,216.425c1.249-1.068,2.413-2.232,3.481-3.481c11.333,13.255,31.265,14.813,44.519,3.481     c1.249-1.068,2.413-2.232,3.481-3.481c6.017,6.993,14.775,11.027,24,11.056v56H96v-60.448c3.008-1.753,5.711-3.985,8-6.608     C115.333,226.199,135.265,227.757,148.519,216.425z M112,192v-64h32v64c0,8.837-7.163,16-16,16S112,200.837,112,192z M160,192     v-64h32v64c0,8.837-7.163,16-16,16S160,200.837,160,192z M208,192v-64h32v64c0,8.837-7.163,16-16,16S208,200.837,208,192z      M96,192c0,8.837-7.163,16-16,16s-16-7.163-16-16v-64h32V192z M80,224v64c0,4.418,3.582,8,8,8h144c4.418,0,8-3.582,8-8v-68.448     c3.008-1.753,5.711-3.985,8-6.608c2.289,2.623,4.992,4.855,8,6.608V288c0,4.418,3.582,8,8,8h144c4.418,0,8-3.582,8-8v-64     c5.634-0.033,11.157-1.569,16-4.448V312H64v-92.448C68.843,222.431,74.366,223.967,80,224z M340.519,216.425     c1.249-1.068,2.413-2.232,3.481-3.481c11.333,13.255,31.265,14.813,44.519,3.481c1.249-1.068,2.413-2.232,3.481-3.481     c2.289,2.623,4.992,4.855,8,6.608V280H272v-56c9.225-0.029,17.983-4.063,24-11.056     C307.333,226.199,327.265,227.757,340.519,216.425z M304,192v-64h32v64c0,8.837-7.163,16-16,16S304,200.837,304,192z M352,192     v-64h32v64c0,8.837-7.163,16-16,16S352,200.837,352,192z M288,192c0,8.837-7.163,16-16,16s-16-7.163-16-16v-64h32V192z M416,208     c-8.837,0-16-7.163-16-16v-64h32v64C432,200.837,424.837,208,416,208z M16,128h32v64c0,8.837-7.163,16-16,16s-16-7.163-16-16V128     z M32,280v-56c5.634-0.033,11.157-1.569,16-4.448V280H32z M48,296v16H32v-16H48z M48,480H32v-88h16V480z M48,376H32v-16h16V376z      M129.328,480l2.456-16h40.432l2.456,16H129.328z M167.288,432l2.464,16h-35.504l2.464-16H167.288z M139.2,416l3.696-24h18.24     l3.696,24H139.2z M225.328,480l2.456-16h40.432l2.456,16H225.328z M263.288,432l2.464,16h-35.504l2.464-16H263.288z M235.2,416     l3.696-24h18.24l3.696,24H235.2z M321.328,480l2.456-16h40.432l2.456,16H321.328z M359.288,432l2.464,16h-35.504l2.464-16     H359.288z M331.2,416l3.696-24h18.24l3.696,24H331.2z M432,480h-49.136l-13.536-88H376c4.418,0,8-3.582,8-8s-3.582-8-8-8h-64     c-4.418,0-8,3.582-8,8s3.582,8,8,8h6.672l-13.536,88h-18.272l-13.536-88H280c4.418,0,8-3.582,8-8s-3.582-8-8-8h-64     c-4.418,0-8,3.582-8,8s3.582,8,8,8h6.672l-13.536,88h-18.272l-13.536-88H184c4.418,0,8-3.582,8-8s-3.582-8-8-8h-64     c-4.418,0-8,3.582-8,8s3.582,8,8,8h6.672l-13.536,88H64V360h368V480z M464,480h-16v-88h16V480z M464,376h-16v-16h16V376z      M480,344H16v-16h464V344z M464,208c-8.837,0-16-7.163-16-16v-64h32v64C480,200.837,472.837,208,464,208z" data-original="#000000" class="active-path" data-old_color="#000000" fill="#E3E9ED"/>
			<rect x="112" y="240" width="32" height="16" data-original="#000000" class="active-path" data-old_color="#000000" fill="#E3E9ED"/>
			<rect x="176" y="240" width="32" height="16" data-original="#000000" class="active-path" data-old_color="#000000" fill="#E3E9ED"/>
			<rect x="288" y="240" width="32" height="16" data-original="#000000" class="active-path" data-old_color="#000000" fill="#E3E9ED"/>
			<rect x="352" y="240" width="32" height="16" data-original="#000000" class="active-path" data-old_color="#000000" fill="#E3E9ED"/>
		</g>
	</g>
</g></g> </svg>
