<svg id="Capa_1" enable-background="new 0 0 512.129 512.129" height="512" viewBox="0 0 512.129 512.129" width="512" xmlns="http://www.w3.org/2000/svg"><g><g><path d="m504.632 24.478v36.324c0 9.328-7.562 16.889-16.889 16.889h-119.963c-4.348 0-8.554 1.546-11.866 4.362l-49.617 42.174c-3.54 3.009-8.981.493-8.981-4.153v-36.933c0-3.01-2.44-5.451-5.451-5.451h-10.922c-9.328 0-16.889-7.562-16.889-16.889v-36.323c0-9.328 7.562-16.889 16.889-16.889h206.799c9.328-.001 16.89 7.561 16.89 16.889z" fill="#fece85"/></g><g><path d="m347.782 77.69h19.995c-4.349 0-8.548 1.549-11.867 4.359l-49.617 42.179c-3.539 3.009-8.978.49-8.978-4.159v-5.209l38.6-32.812c3.319-2.809 7.518-4.358 11.867-4.358z" fill="#fec165"/></g><g><path d="m504.632 24.473v36.331c0 9.328-7.558 16.886-16.886 16.886h-19.995c9.328 0 16.886-7.558 16.886-16.886v-36.331c0-9.328-7.558-16.886-16.886-16.886h19.995c9.328 0 16.886 7.559 16.886 16.886z" fill="#fec165"/></g><g><path d="m234.882 504.541h-195.079v-26.368c0-53.869 43.67-97.539 97.539-97.539 53.869 0 97.539 43.67 97.539 97.539v26.368z" fill="#99e6fc"/></g><g><path d="m234.88 478.169v26.373h-19.995v-26.373c0-26.933-10.917-51.317-28.563-68.963-15.446-15.446-36.031-25.733-58.975-28.073 3.289-.33 6.618-.5 9.997-.5 26.933 0 51.317 10.917 68.973 28.573 17.646 17.646 28.563 42.029 28.563 68.963z" fill="#62dbfb"/></g><g><path d="m137.343 410.475c-12.941 0-23.432-10.491-23.432-23.432v-54.01h46.864v54.01c0 12.941-10.491 23.432-23.432 23.432z" fill="#fed2a4"/></g><g><path d="m160.772 333.034v54.018c0 12.937-10.495 23.432-23.432 23.432-4.256 0-8.274-1.136-11.716-3.154 7.002-4.035 11.716-11.614 11.716-20.278v-54.018z" fill="#ffbd86"/></g><g><path d="m137.348 359.662c-50.695 0-91.792-41.097-91.792-91.792v-74.851h91.792 91.792v74.851c0 50.695-41.097 91.792-91.792 91.792z" fill="#fed2a4"/></g><g><path d="m229.142 193.021v74.851c0 50.697-41.1 91.787-91.797 91.787-3.379 0-6.718-.18-9.997-.54 45.998-4.979 81.799-43.929 81.799-91.247v-74.851z" fill="#ffbd86"/></g><g><g><path d="m245.845 166.604c-2.594-3.648-3.308-8.279-2.234-12.624 2.283-9.239 3.288-19.026 3.587-28.719.267-8.639-.334-17.34-1.718-25.908-1.495-9.253-10.443-15.377-19.611-13.428-6.104 1.297-11.866 2.427-12.752 2.602-26.999 5.336-52.739 5.919-80.091 7.775-24.894 1.689-49.873 5.386-72.397 16.725-16.122 8.116-26.185 23.837-26.292 40.937v.053c-.02 3.495-1.15 6.911-3.304 9.663-10.799 13.796-16.855 30.951-16.855 48.858v36.854h31.214v-49.464c.019-5.713 6.428-9.09 11.311-6.123.043.026.085.052.128.078 13.131 7.912 29.474 10.97 44.961 12.696 21.395 2.385 44.247 2.513 65.731.784 10.459-.842 20.966-2.296 31.029-5.35 4.936-1.498 9.775-3.358 14.351-5.763 1.718-.905 3.353-1.872 4.909-2.896 4.854-3.196 11.474.192 11.494 6.004v50.035h31.214v-36.854c-.001-16.663-5.245-32.675-14.675-45.935z" fill="#596c76"/></g><g><path d="m260.524 212.536v36.861h-19.995v-36.861c0-16.656-5.249-32.672-14.676-45.928-2.599-3.649-3.309-8.278-2.239-12.627 2.289-9.238 3.289-19.025 3.589-28.723.27-8.638-.33-17.335-1.72-25.903-.83-5.139-3.949-9.308-8.138-11.667 2.339-.48 5.389-1.1 8.528-1.76 9.168-1.949 18.115 4.169 19.605 13.427 1.39 8.568 1.99 17.266 1.72 25.903-.3 9.697-1.3 19.485-3.589 28.723-1.07 4.349-.36 8.978 2.239 12.627 9.427 13.256 14.676 29.272 14.676 45.928z" fill="#465a61"/></g></g><g><path d="m45.721 267.368h-12.103c-14.426 0-26.12-11.694-26.12-26.12 0-14.426 11.694-26.12 26.12-26.12h12.103z" fill="#fed2a4"/></g><g><path d="m229.14 267.368h12.103c14.426 0 26.12-11.694 26.12-26.12 0-14.426-11.694-26.12-26.12-26.12h-12.103z" fill="#fed2a4"/></g><g><path d="m487.742.09h-206.799c-13.447 0-24.387 10.941-24.387 24.387v36.324c0 13.447 10.941 24.387 24.387 24.387h8.876v34.885c0 5.106 2.879 9.61 7.514 11.753 1.766.817 3.627 1.217 5.471 1.217 2.994 0 5.941-1.057 8.349-3.104l49.617-42.175c1.954-1.662 4.444-2.576 7.01-2.576h39.446c4.141 0 7.498-3.357 7.498-7.498s-3.357-7.498-7.498-7.498h-39.446c-6.12 0-12.059 2.183-16.722 6.146l-46.243 39.307v-32.503c0-7.14-5.809-12.949-12.949-12.949h-10.923c-5.178 0-9.391-4.213-9.391-9.391v-36.324c0-5.178 4.213-9.391 9.391-9.391h206.799c5.178 0 9.391 4.213 9.391 9.391v36.324c0 5.178-4.213 9.391-9.391 9.391h-45.426c-4.141 0-7.498 3.357-7.498 7.498s3.357 7.498 7.498 7.498h45.426c13.447 0 24.387-10.941 24.387-24.387v-36.324c0-13.447-10.94-24.388-24.387-24.388z"/><path d="m268.017 212.539c0-18.117-5.554-35.504-16.061-50.28-1.258-1.768-1.646-4.13-1.066-6.48 2.206-8.924 3.449-18.831 3.803-30.285.278-8.985-.332-18.182-1.811-27.336-1.053-6.519-4.636-12.167-10.088-15.902-5.455-3.736-12.02-5.04-18.484-3.664-2.618.557-6.906 1.45-12.469 2.545l-.177.035c-21.069 4.164-41.317 5.363-62.753 6.632-5.339.315-10.86.642-16.392 1.018-20.628 1.399-36.196 3.846-50.477 7.932-3.981 1.139-6.286 5.291-5.147 9.272 1.14 3.981 5.293 6.286 9.272 5.146 13.226-3.784 27.835-6.063 47.368-7.389 5.468-.371 10.956-.695 16.263-1.01 21.961-1.3 42.704-2.528 64.772-6.89l.17-.033c5.654-1.114 10.021-2.024 12.689-2.591 2.412-.51 4.857-.026 6.891 1.368 2.032 1.392 3.367 3.495 3.759 5.922 1.327 8.213 1.874 16.449 1.626 24.481-.32 10.384-1.423 19.266-3.372 27.151-1.629 6.595-.389 13.436 3.403 18.768 8.15 11.462 12.697 24.82 13.233 38.794-3.653-1.364-7.602-2.113-11.725-2.113h-4.577l-.027-8.297c-.018-5.422-2.991-10.38-7.76-12.939-4.802-2.579-10.624-2.312-15.191.696-1.367.9-2.807 1.75-4.274 2.522-3.837 2.017-8.103 3.727-13.041 5.225-8.202 2.49-17.56 4.096-29.452 5.052-21.834 1.755-44.069 1.493-64.3-.763-12.888-1.436-29.3-4.06-41.921-11.666-.019-.011-.086-.052-.104-.063-4.623-2.809-10.434-2.909-15.163-.259-4.704 2.635-7.523 7.407-7.54 12.79v7.701h-4.275c-4.183 0-8.187.774-11.885 2.177.581-15.007 5.924-29.651 15.203-41.505 3.129-3.998 4.868-9.056 4.898-14.291.072-11.5 5.555-22.354 15.044-29.779 3.261-2.552 3.836-7.265 1.284-10.526-2.553-3.262-7.266-3.835-10.526-1.284-13.116 10.264-20.696 25.388-20.798 41.552-.01 1.883-.618 3.689-1.71 5.084-11.897 15.198-18.449 34.192-18.449 53.48v8.621c-4.194 5.61-6.68 12.565-6.68 20.09 0 18.537 15.081 33.618 33.618 33.618h4.69c2.86 40.884 30.581 75.02 68.105 87.355v15.587c-42.865 13.238-74.107 53.211-74.107 100.365v26.367c0 4.141 3.357 7.498 7.498 7.498h195.079c4.141 0 7.498-3.357 7.498-7.498v-26.367c0-47.153-31.243-87.124-74.107-100.362v-15.587c37.529-12.332 65.254-46.471 68.115-87.359h4.855c18.537 0 33.618-15.081 33.618-33.618 0-7.621-2.553-14.655-6.844-20.3v-8.408zm-229.959 47.331h-4.44c-10.268 0-18.622-8.354-18.622-18.622s8.354-18.621 18.622-18.621h4.44zm189.326 218.304v18.869h-180.082v-18.869c0-39.031 24.97-72.324 59.768-84.787 2.935 14.022 15.393 24.586 30.273 24.586 14.879 0 27.335-10.562 30.272-24.581 34.797 12.463 59.769 45.751 59.769 84.782zm-105.975-91.131v-21.169c5.191.841 10.514 1.285 15.939 1.285 5.422 0 10.741-.443 15.929-1.284v21.167c0 8.786-7.148 15.933-15.934 15.933-8.786.002-15.934-7.146-15.934-15.932zm100.233-119.174c0 46.479-37.814 84.294-84.294 84.294-46.165 0-83.952-37.309-84.459-83.357.091-.466 0-68.545 0-68.545l.071.043c15.115 9.109 33.592 12.12 48 13.726 21.166 2.36 44.391 2.639 67.164.806 12.989-1.045 23.35-2.84 32.606-5.65 5.854-1.778 10.977-3.839 15.665-6.303 1.395-.734 2.759-1.535 4.102-2.369h1.145zm19.601-7.999h-4.605v-37.244h4.605c10.268 0 18.622 8.353 18.622 18.621 0 10.269-8.354 18.623-18.622 18.623z"/><path d="m99.936 239.452c-4.141 0-7.498 3.357-7.498 7.498v16.514c0 4.142 3.357 7.498 7.498 7.498s7.498-3.357 7.498-7.498v-16.514c0-4.142-3.357-7.498-7.498-7.498z"/><path d="m174.761 239.452c-4.141 0-7.498 3.357-7.498 7.498v16.514c0 4.142 3.357 7.498 7.498 7.498s7.498-3.357 7.498-7.498v-16.514c0-4.142-3.357-7.498-7.498-7.498z"/></g></g></svg>