<svg xmlns="http://www.w3.org/2000/svg" width="20.993" height="20.993" viewBox="0 0 20.993 20.993"><defs><style>.a{fill:#a734ff;}</style></defs><path class="a" d="M3.958,7.469h9.9v5.938h-9.9Zm12.37,2.969a1.484,1.484,0,0,0,1.484,1.484v2.969a1.484,1.484,0,0,1-1.484,1.484H1.484A1.484,1.484,0,0,1,0,14.891V11.922a1.484,1.484,0,0,0,1.484-1.484A1.484,1.484,0,0,0,0,8.953V5.984A1.484,1.484,0,0,1,1.484,4.5H16.329a1.484,1.484,0,0,1,1.484,1.484V8.953A1.484,1.484,0,0,0,16.329,10.438ZM14.844,7.221a.742.742,0,0,0-.742-.742H3.711a.742.742,0,0,0-.742.742v6.433a.742.742,0,0,0,.742.742H14.1a.742.742,0,0,0,.742-.742Z" transform="translate(11.579 -3.182) rotate(45)"/></svg>