<svg xmlns="http://www.w3.org/2000/svg" width="22.453" height="19.683" viewBox="0 0 22.453 19.683">
  <path id="Icon_map-food" data-name="Icon map-food" d="M23.124,8.078,21.283,22.507H15.066l-1.833-14.5h7.59l1.5-5.182.85.256L21.734,8.067Zm-10.77,8.348s.232-1.871-2.991-1.871H4.228c-3.219,0-2.991,1.871-2.991,1.871ZM1.236,20.636s-.228,1.871,2.991,1.871H9.363c3.224,0,2.991-1.871,2.991-1.871H1.236ZM11.871,19.7a1.076,1.076,0,0,0,.954-1.169,1.074,1.074,0,0,0-.954-1.17H1.674a1.076,1.076,0,0,0-.954,1.17A1.078,1.078,0,0,0,1.674,19.7h10.2Z" transform="translate(-0.72 -2.825)" fill="#a734ff"/>
</svg>
