<svg xmlns="http://www.w3.org/2000/svg" width="33.002" height="25.668" viewBox="0 0 33.002 25.668">
  <path id="Icon_awesome-spa" data-name="Icon awesome-spa" d="M32.558,11.417c-1.664.007-7.735.353-12.252,4.755a14.723,14.723,0,0,0-3.8,5.435,14.723,14.723,0,0,0-3.8-5.435C8.179,11.77,2.108,11.425.444,11.417A.436.436,0,0,0,0,11.865,15.866,15.866,0,0,0,5.086,23.284,15.207,15.207,0,0,0,16.5,27.918a15.206,15.206,0,0,0,11.415-4.634A15.864,15.864,0,0,0,33,11.865a.436.436,0,0,0-.444-.448ZM16.5,17.754a15.763,15.763,0,0,1,2.526-2.895,17.147,17.147,0,0,1,3.453-2.589A18.9,18.9,0,0,0,16.936,2.4a.688.688,0,0,0-.867,0,18.9,18.9,0,0,0-5.543,9.859,16.845,16.845,0,0,1,3.393,2.543A16.2,16.2,0,0,1,16.5,17.754Z" transform="translate(0 -2.25)" fill="#a734ff"/>
</svg>
