<svg xmlns="http://www.w3.org/2000/svg" width="20.838" height="14.556" viewBox="0 0 20.838 14.556">
  <path id="Icon_metro-books" data-name="Icon metro-books" d="M6.817,8.571H3.178a.608.608,0,0,0-.607.607V22.521a.608.608,0,0,0,.607.607H6.817a.608.608,0,0,0,.607-.607V9.178A.608.608,0,0,0,6.817,8.571Zm-.607,3.639H3.784V11H6.211Zm6.672-3.639H9.243a.608.608,0,0,0-.607.607V22.521a.608.608,0,0,0,.607.607h3.639a.608.608,0,0,0,.607-.607V9.178A.608.608,0,0,0,12.882,8.571Zm-.607,3.639H9.85V11h2.426Zm4.8-2.7-3.25,1.637a.608.608,0,0,0-.269.815l5.458,10.833a.608.608,0,0,0,.815.269l3.25-1.637a.608.608,0,0,0,.269-.815L17.887,9.778a.608.608,0,0,0-.815-.269ZM20.16,22.521a.607.607,0,1,1-.607-.607A.607.607,0,0,1,20.16,22.521Z" transform="translate(-2.571 -8.571)" fill="#a734ff"/>
</svg>
